<?xml version="1.0" encoding="UTF-8" standalone="no"?>
<svg
   xmlns:dc="http://purl.org/dc/elements/1.1/"
   xmlns:cc="http://creativecommons.org/ns#"
   xmlns:rdf="http://www.w3.org/1999/02/22-rdf-syntax-ns#"
   xmlns:svg="http://www.w3.org/2000/svg"
   xmlns="http://www.w3.org/2000/svg"
   xmlns:sodipodi="http://sodipodi.sourceforge.net/DTD/sodipodi-0.dtd"
   xmlns:inkscape="http://www.inkscape.org/namespaces/inkscape"
   inkscape:version="1.0beta1 (3c9e8b0c0e, 2019-09-26)"
   sodipodi:docname="eu.svg"
   id="svg2"
   version="1.1"
   xml:space="preserve"
   style="enable-background:new 0 0 45 45;"
   viewBox="0 0 45 45">
  <sodipodi:namedview
     inkscape:current-layer="svg2"
     inkscape:window-maximized="0"
     inkscape:window-y="277"
     inkscape:window-x="518"
     inkscape:cy="22.5"
     inkscape:cx="24.235408"
     inkscape:zoom="16.389164"
     inkscape:bbox-nodes="true"
     inkscape:snap-nodes="false"
     inkscape:snap-bbox="true"
     showgrid="false"
     id="namedview1748"
     inkscape:window-height="1455"
     inkscape:window-width="2282"
     inkscape:pageshadow="2"
     inkscape:pageopacity="0"
     guidetolerance="10"
     gridtolerance="10"
     objecttolerance="10"
     borderopacity="1"
     inkscape:document-rotation="0"
     bordercolor="#666666"
     pagecolor="#ffffff" />
  <metadata
     id="metadata8">
    <rdf:RDF>
      <cc:Work
         rdf:about="">
        <dc:format>image/svg+xml</dc:format>
        <dc:type
           rdf:resource="http://purl.org/dc/dcmitype/StillImage" />
        <dc:title></dc:title>
      </cc:Work>
    </rdf:RDF>
  </metadata>
  <defs
     id="defs6">
    <clipPath
       clipPathUnits="userSpaceOnUse"
       id="clipPath16">
      <path
         d="M 4,31 C 1.791,31 0,29.21 0,27 L 0,27 0,9 C 0,6.79 1.791,5 4,5 l 0,0 28,0 c 2.209,0 4,1.79 4,4 l 0,0 0,18 c 0,2.21 -1.791,4 -4,4 l 0,0 -28,0 z"
         id="path18" />
    </clipPath>
    <clipPath
       id="clipPath48"
       clipPathUnits="userSpaceOnUse">
      <path
         inkscape:connector-curvature="0"
         id="path50"
         d="M 0,36 H 36 V 0 H 0 Z" />
    </clipPath>
  </defs>
  <g
     id="g10"
     transform="matrix(1.25,0,0,-1.25,0,45)">
    <g
       id="g12">
      <g
         id="g14"
         clip-path="url(#clipPath16)">
        <path
           d="M 0,31 36,31 36,5 0,5 0,31 Z"
           style="fill:#003399;fill-opacity:1;fill-rule:nonzero;stroke:none"
           id="path20" />
        <g
           id="g22"
           transform="translate(18.5392,26.2955)">
          <path
             d="m 0,0 0.849,0.617 -1.049,0 -0.325,0.998 -0.324,-0.998 -1.049,0 L -1.049,0 -1.374,-0.998 -0.525,-0.381 0.324,-0.998 0,0 Z"
             style="fill:#ffcc00;fill-opacity:1;fill-rule:nonzero;stroke:none"
             id="path24" />
        </g>
        <g
           id="g26"
           transform="translate(18.5392,8.9622)">
          <path
             d="m 0,0 0.849,0.617 -1.049,0 -0.325,0.998 -0.324,-0.998 -1.049,0 L -1.049,0 -1.374,-0.998 -0.525,-0.381 0.324,-0.998 0,0 Z"
             style="fill:#ffcc00;fill-opacity:1;fill-rule:nonzero;stroke:none"
             id="path28" />
        </g>
        <g
           id="g30"
           transform="translate(9.8725,17.6288)">
          <path
             d="m 0,0 0.849,0.617 -1.049,0 -0.325,0.998 -0.324,-0.998 -1.049,0 L -1.049,0 -1.374,-0.998 -0.525,-0.381 0.324,-0.998 0,0 Z"
             style="fill:#ffcc00;fill-opacity:1;fill-rule:nonzero;stroke:none"
             id="path32" />
        </g>
        <g
           id="g34"
           transform="translate(10.9799,21.914)">
          <path
             d="m 0,0 0.849,0.617 -1.049,0 -0.325,0.998 -0.324,-0.998 -1.049,0 L -1.049,0 -1.374,-0.998 -0.525,-0.381 0.324,-0.998 0,0 Z"
             style="fill:#ffcc00;fill-opacity:1;fill-rule:nonzero;stroke:none"
             id="path36" />
        </g>
        <g
           id="g38"
           transform="translate(10.9799,13.2955)">
          <path
             d="m 0,0 0.849,0.617 -1.049,0 -0.325,0.998 -0.324,-0.998 -1.049,0 L -1.049,0 -1.374,-0.998 -0.525,-0.381 0.324,-0.998 0,0 Z"
             style="fill:#ffcc00;fill-opacity:1;fill-rule:nonzero;stroke:none"
             id="path40" />
        </g>
        <g
           id="g42"
           transform="translate(14.2058,25.1344)">
          <path
             d="m 0,0 0.849,0.617 -1.049,0 -0.325,0.998 -0.324,-0.998 -1.049,0 L -1.049,0 -1.374,-0.998 -0.525,-0.381 0.324,-0.998 0,0 Z"
             style="fill:#ffcc00;fill-opacity:1;fill-rule:nonzero;stroke:none"
             id="path44" />
        </g>
        <g
           id="g46"
           transform="translate(14.2058,10.0667)">
          <path
             d="m 0,0 0.849,0.617 -1.049,0 -0.325,0.998 -0.324,-0.998 -1.049,0 L -1.049,0 -1.374,-0.998 -0.525,-0.381 0.324,-0.998 0,0 Z"
             style="fill:#ffcc00;fill-opacity:1;fill-rule:nonzero;stroke:none"
             id="path48" />
        </g>
        <g
           id="g50"
           transform="translate(26.1275,17.6288)">
          <path
             d="m 0,0 -0.849,0.617 1.049,0 0.325,0.998 0.324,-0.998 1.049,0 L 1.049,0 1.374,-0.998 0.525,-0.381 -0.324,-0.998 0,0 Z"
             style="fill:#ffcc00;fill-opacity:1;fill-rule:nonzero;stroke:none"
             id="path52" />
        </g>
        <g
           id="g54"
           transform="translate(25.0201,21.914)">
          <path
             d="m 0,0 -0.849,0.617 1.049,0 0.325,0.998 0.324,-0.998 1.049,0 L 1.049,0 1.374,-0.998 0.525,-0.381 -0.324,-0.998 0,0 Z"
             style="fill:#ffcc00;fill-opacity:1;fill-rule:nonzero;stroke:none"
             id="path56" />
        </g>
        <g
           id="g58"
           transform="translate(25.0201,13.2955)">
          <path
             d="m 0,0 -0.849,0.617 1.049,0 0.325,0.998 0.324,-0.998 1.049,0 L 1.049,0 1.374,-0.998 0.525,-0.381 -0.324,-0.998 0,0 Z"
             style="fill:#ffcc00;fill-opacity:1;fill-rule:nonzero;stroke:none"
             id="path60" />
        </g>
        <g
           id="g62"
           transform="translate(21.7942,25.1344)">
          <path
             d="m 0,0 -0.849,0.617 1.049,0 0.325,0.998 0.324,-0.998 1.049,0 L 1.049,0 1.374,-0.998 0.525,-0.381 -0.324,-0.998 0,0 Z"
             style="fill:#ffcc00;fill-opacity:1;fill-rule:nonzero;stroke:none"
             id="path64" />
        </g>
        <g
           id="g66"
           transform="translate(21.7942,10.0667)">
          <path
             d="m 0,0 -0.849,0.617 1.049,0 0.325,0.998 0.324,-0.998 1.049,0 L 1.049,0 1.374,-0.998 0.525,-0.381 -0.324,-0.998 0,0 Z"
             style="fill:#ffcc00;fill-opacity:1;fill-rule:nonzero;stroke:none"
             id="path68" />
        </g>
      </g>
    </g>
  </g>
  <path
     inkscape:connector-curvature="0"
     id="path18-7"
     style="opacity:1;fill:#00247d;fill-opacity:1;fill-rule:nonzero;stroke:none;stroke-width:1.25;stop-opacity:1"
     d="m 5.830125,38.749875 h 10.42 v -7.29625 z" />
  <path
     inkscape:connector-curvature="0"
     id="path22"
     style="opacity:1;fill:#00247d;fill-opacity:1;fill-rule:nonzero;stroke:none;stroke-width:1.25;stop-opacity:1"
     d="M 28.75,31.455 V 38.75 H 39.16875 Z" />
  <path
     inkscape:connector-curvature="0"
     id="path34"
     style="opacity:1;fill:#00247d;fill-opacity:1;fill-rule:nonzero;stroke:none;stroke-width:1.25;stop-opacity:1"
     d="m 37.960875,28.750375 7.03875,4.9275 v -4.9275 z" />
  <path
     inkscape:connector-curvature="0"
     id="path38"
     style="opacity:1;fill:#00247d;fill-opacity:1;fill-rule:nonzero;stroke:none;stroke-width:1.25;stop-opacity:1"
     d="m 37.96425,16.249375 h 7.03625 v -4.92625 z" />
  <path
     inkscape:connector-curvature="0"
     id="path54"
     style="opacity:1;fill:#cf1b2b;fill-opacity:1;fill-rule:nonzero;stroke:none;stroke-width:1.25;stop-opacity:1"
     d="m 31.4245,28.749875 12.14,8.50125 c 0.58875,-0.6 1.01,-1.3525 1.2375,-2.18625 l -9.01875,-6.315 z" />
  <path
     inkscape:connector-curvature="0"
     id="path58"
     style="opacity:1;fill:#cf1b2b;fill-opacity:1;fill-rule:nonzero;stroke:none;stroke-width:1.25;stop-opacity:1"
     d="m 16.25,28.749875 h -2.67625 l -12.13875,8.5 c 0.65125,0.6625 1.48625,1.13625 2.4225,1.35625 l 12.3925,-8.6775 z" />
  <path
     inkscape:connector-curvature="0"
     id="path70"
     style="opacity:1;fill:#eeeeee;fill-opacity:1;fill-rule:nonzero;stroke:none;stroke-width:1.25;stop-opacity:1"
     d="M 45,26.249875 H 26.25 v 12.5 h 2.5 v -7.295 l 10.41875,7.295 H 40 c 1.39625,0 2.6575,-0.57625 3.565,-1.49875 l -12.14,-8.50125 h 4.35875 l 9.01875,6.315 C 44.91875,34.643625 45,34.207375 45,33.749875 v -0.0725 l -7.03875,-4.9275 H 45 Z" />
  <path
     d="M 17.371094 26.25 L 13.833984 28.75 L 16.25 28.75 L 16.25 29.927734 L 3.8574219 38.605469 C 4.2249219 38.691719 4.605 38.75 5 38.75 L 5.8300781 38.75 L 16.25 31.453125 L 16.25 38.75 L 18.75 38.75 L 18.75 26.25 L 17.371094 26.25 z "
     style="opacity:1;fill:#eeeeee;fill-opacity:1;fill-rule:nonzero;stroke:none;stroke-width:1.25;stop-opacity:1"
     id="path74" />
  <path
     d="M 43.564453 7.75 L 40.773438 9.7050781 L 27.978516 18.75 L 45 18.75 L 45 16.25 L 37.962891 16.25 L 45 11.324219 L 45 11.25 C 45 9.88625 44.450703 8.6525 43.564453 7.75 z "
     style="opacity:1;fill:#eeeeee;fill-opacity:1;fill-rule:nonzero;stroke:none;stroke-width:1.25;stop-opacity:1"
     id="path78" />
  <path
     d="M 27.978516 18.75 L 17.371094 26.25 L 18.75 26.25 L 18.75 38.75 L 26.25 38.75 L 26.25 26.25 L 45 26.25 L 45 22.5 L 45 18.75 L 27.978516 18.75 z "
     style="opacity:1;fill:#cf1b2b;fill-opacity:1;fill-rule:nonzero;stroke:none;stroke-width:1.25;stop-opacity:1"
     id="path86" />
</svg>
