<?xml version="1.0" encoding="UTF-8" standalone="no"?>
<svg
   xmlns:dc="http://purl.org/dc/elements/1.1/"
   xmlns:cc="http://creativecommons.org/ns#"
   xmlns:rdf="http://www.w3.org/1999/02/22-rdf-syntax-ns#"
   xmlns:svg="http://www.w3.org/2000/svg"
   xmlns="http://www.w3.org/2000/svg"
   id="svg2"
   version="1.1"
   xml:space="preserve"
   style="enable-background:new 0 0 45 45;"
   viewBox="0 0 45 45">
  <metadata
     id="metadata8">
    <rdf:RDF>
      <cc:Work
         rdf:about="">
        <dc:format>image/svg+xml</dc:format>
        <dc:type
           rdf:resource="http://purl.org/dc/dcmitype/StillImage" />
        <dc:title></dc:title>
      </cc:Work>
    </rdf:RDF>
  </metadata>
  <defs
     id="defs6">
    <clipPath
       clipPathUnits="userSpaceOnUse"
       id="clipPath16">
      <path
         d="M 0,36 36,36 36,0 0,0 0,36 Z"
         id="path18" />
    </clipPath>
    <clipPath
       id="clipPath16-3"
       clipPathUnits="userSpaceOnUse">
      <path
         id="path18-6"
         d="M 0,36 H 36 V 0 H 0 Z" />
    </clipPath>
  </defs>
  <g
     id="g10"
     transform="matrix(1.25,0,0,-1.25,0,45)">
    <g
       id="g12">
      <g
         id="g14"
         clip-path="url(#clipPath16)">
        <g
           id="g20"
           transform="translate(35.4451,29)">
          <path
             d="m 0,0 c -0.693,1.191 -1.968,2 -3.445,2 l -14,0 0,-2 L 0,0 Z"
             style="fill:#b22334;fill-opacity:1;fill-rule:nonzero;stroke:none"
             id="path22" />
        </g>
        <path
           d="M 0,9 36,9 36,11 0,11 0,9 Z"
           style="fill:#b22334;fill-opacity:1;fill-rule:nonzero;stroke:none"
           id="path24" />
        <path
           d="m 18,17 18,0 0,2 -18,0 0,-2 z"
           style="fill:#b22334;fill-opacity:1;fill-rule:nonzero;stroke:none"
           id="path26" />
        <path
           d="m 18,21 18,0 0,2 -18,0 0,-2 z"
           style="fill:#b22334;fill-opacity:1;fill-rule:nonzero;stroke:none"
           id="path28" />
        <path
           d="m 0,13 36,0 0,2 -36,0 0,-2 z"
           style="fill:#b22334;fill-opacity:1;fill-rule:nonzero;stroke:none"
           id="path30" />
        <g
           id="g32"
           transform="translate(4,5)">
          <path
             d="m 0,0 28,0 c 1.477,0 2.752,0.809 3.445,2 L -3.445,2 C -2.752,0.809 -1.477,0 0,0"
             style="fill:#b22334;fill-opacity:1;fill-rule:nonzero;stroke:none"
             id="path34" />
        </g>
        <path
           d="m 18,25 18,0 0,2 -18,0 0,-2 z"
           style="fill:#b22334;fill-opacity:1;fill-rule:nonzero;stroke:none"
           id="path36" />
        <g
           id="g38"
           transform="translate(0.0685,8.3212)">
          <path
             d="M 0,0 C 0.017,-0.093 0.036,-0.186 0.059,-0.277 0.085,-0.378 0.118,-0.476 0.151,-0.573 0.24,-0.832 0.348,-1.082 0.484,-1.316 0.485,-1.318 0.485,-1.32 0.486,-1.321 l 0,0 34.891,0 0,0 c 10e-4,10e-4 10e-4,0.003 0.002,0.004 0.135,0.233 0.243,0.483 0.332,0.741 0.034,0.099 0.067,0.198 0.093,0.3 0.024,0.091 0.042,0.183 0.059,0.275 0.04,0.221 0.069,0.446 0.069,0.68 l -36,0 C -0.068,0.446 -0.04,0.221 0,0"
             style="fill:#eeeeee;fill-opacity:1;fill-rule:nonzero;stroke:none"
             id="path40" />
        </g>
        <path
           d="m 0,11 36,0 0,2 -36,0 0,-2 z"
           style="fill:#eeeeee;fill-opacity:1;fill-rule:nonzero;stroke:none"
           id="path42" />
        <g
           id="g44"
           transform="translate(0,17)">
          <path
             d="M 0,0 0,-2 36,-2 36,0 18,0 0,0 Z"
             style="fill:#eeeeee;fill-opacity:1;fill-rule:nonzero;stroke:none"
             id="path46" />
        </g>
        <path
           d="m 18,19 18,0 0,2 -18,0 0,-2 z"
           style="fill:#eeeeee;fill-opacity:1;fill-rule:nonzero;stroke:none"
           id="path48" />
        <path
           d="m 18,23 18,0 0,2 -18,0 0,-2 z"
           style="fill:#eeeeee;fill-opacity:1;fill-rule:nonzero;stroke:none"
           id="path50" />
        <g
           id="g52"
           transform="translate(0,27)">
          <path
             d="M 0,0 C 0,0.233 0.03,0.457 0.068,0.679 0.028,0.458 0,0.233 0,0"
             style="fill:#eeeeee;fill-opacity:1;fill-rule:nonzero;stroke:none"
             id="path54" />
        </g>
        <g
           id="g56"
           transform="translate(0.5547,29)">
          <path
             d="M 0,0 C -0.001,-0.002 -0.002,-0.003 -0.002,-0.005 -0.001,-0.003 -0.001,-0.002 0,0 Z"
             style="fill:#eeeeee;fill-opacity:1;fill-rule:nonzero;stroke:none"
             id="path58" />
        </g>
        <g
           id="g60"
           transform="translate(0.1277,27.9556)">
          <path
             d="M 0,0 C 0.025,0.102 0.06,0.199 0.092,0.297 0.059,0.199 0.026,0.101 0,0"
             style="fill:#eeeeee;fill-opacity:1;fill-rule:nonzero;stroke:none"
             id="path62" />
        </g>
        <g
           id="g64"
           transform="translate(18,27)">
          <path
             d="m 0,0 18,0 c 0,0.233 -0.028,0.459 -0.069,0.68 -0.016,0.092 -0.035,0.184 -0.058,0.274 -0.027,0.103 -0.06,0.203 -0.094,0.302 -0.089,0.258 -0.196,0.507 -0.332,0.74 0,0.001 -10e-4,0.003 -0.002,0.004 l 0,0 L 0,2 0,0 Z"
             style="fill:#eeeeee;fill-opacity:1;fill-rule:nonzero;stroke:none"
             id="path66" />
        </g>
        <g
           id="g68"
           transform="translate(18,31)">
          <path
             d="m 0,0 -14,0 c -2.209,0 -4,-1.791 -4,-4 l 0,-10 18,0 0,14 z"
             style="fill:#3c3b6e;fill-opacity:1;fill-rule:nonzero;stroke:none"
             id="path70" />
        </g>
        <g
           id="g72"
           transform="translate(2.0015,28.2744)">
          <path
             d="M 0,0 0.618,-0.449 0.382,-1.175 0.999,-0.726 1.617,-1.175 1.38,-0.449 1.999,0 1.235,0 0.999,0.726 0.764,0 0,0 Z"
             style="fill:#ffffff;fill-opacity:1;fill-rule:nonzero;stroke:none"
             id="path74" />
        </g>
        <g
           id="g76"
           transform="translate(4.0015,26.2744)">
          <path
             d="M 0,0 0.618,-0.449 0.381,-1.175 0.999,-0.726 1.617,-1.175 1.38,-0.449 1.999,0 1.235,0 0.999,0.726 0.764,0 0,0 Z"
             style="fill:#ffffff;fill-opacity:1;fill-rule:nonzero;stroke:none"
             id="path78" />
        </g>
        <g
           id="g80"
           transform="translate(8.0015,26.2744)">
          <path
             d="M 0,0 0.618,-0.449 0.381,-1.175 0.999,-0.726 1.617,-1.175 1.38,-0.449 1.999,0 1.235,0 0.999,0.726 0.764,0 0,0 Z"
             style="fill:#ffffff;fill-opacity:1;fill-rule:nonzero;stroke:none"
             id="path82" />
        </g>
        <g
           id="g84"
           transform="translate(12.0015,26.2744)">
          <path
             d="M 0,0 0.618,-0.449 0.381,-1.175 0.999,-0.726 1.617,-1.175 1.38,-0.449 1.999,0 1.235,0 0.999,0.726 0.764,0 0,0 Z"
             style="fill:#ffffff;fill-opacity:1;fill-rule:nonzero;stroke:none"
             id="path86" />
        </g>
        <g
           id="g88"
           transform="translate(4.0015,22.2744)">
          <path
             d="M 0,0 0.618,-0.449 0.381,-1.175 0.999,-0.726 1.617,-1.175 1.38,-0.449 1.999,0 1.235,0 0.999,0.726 0.764,0 0,0 Z"
             style="fill:#ffffff;fill-opacity:1;fill-rule:nonzero;stroke:none"
             id="path90" />
        </g>
        <g
           id="g92"
           transform="translate(8.0015,22.2744)">
          <path
             d="M 0,0 0.618,-0.449 0.381,-1.175 0.999,-0.726 1.617,-1.175 1.38,-0.449 1.999,0 1.235,0 0.999,0.726 0.764,0 0,0 Z"
             style="fill:#ffffff;fill-opacity:1;fill-rule:nonzero;stroke:none"
             id="path94" />
        </g>
        <g
           id="g96"
           transform="translate(12.0015,22.2744)">
          <path
             d="M 0,0 0.618,-0.449 0.381,-1.175 0.999,-0.726 1.617,-1.175 1.38,-0.449 1.999,0 1.235,0 0.999,0.726 0.764,0 0,0 Z"
             style="fill:#ffffff;fill-opacity:1;fill-rule:nonzero;stroke:none"
             id="path98" />
        </g>
        <g
           id="g100"
           transform="translate(6.0015,28.2744)">
          <path
             d="M 0,0 0.618,-0.449 0.381,-1.175 0.999,-0.726 1.617,-1.175 1.38,-0.449 1.999,0 1.235,0 0.999,0.726 0.764,0 0,0 Z"
             style="fill:#ffffff;fill-opacity:1;fill-rule:nonzero;stroke:none"
             id="path102" />
        </g>
        <g
           id="g104"
           transform="translate(10.0015,28.2744)">
          <path
             d="M 0,0 0.618,-0.449 0.381,-1.175 0.999,-0.726 1.617,-1.175 1.38,-0.449 1.999,0 1.235,0 0.999,0.726 0.764,0 0,0 Z"
             style="fill:#ffffff;fill-opacity:1;fill-rule:nonzero;stroke:none"
             id="path106" />
        </g>
        <g
           id="g108"
           transform="translate(14.0015,28.2744)">
          <path
             d="M 0,0 0.618,-0.449 0.381,-1.175 0.999,-0.726 1.617,-1.175 1.38,-0.449 1.999,0 1.235,0 0.999,0.726 0.764,0 0,0 Z"
             style="fill:#ffffff;fill-opacity:1;fill-rule:nonzero;stroke:none"
             id="path110" />
        </g>
        <g
           id="g112"
           transform="translate(2.0015,24.2744)">
          <path
             d="M 0,0 0.618,-0.449 0.382,-1.175 0.999,-0.726 1.617,-1.175 1.38,-0.449 1.999,0 1.235,0 0.999,0.726 0.764,0 0,0 Z"
             style="fill:#ffffff;fill-opacity:1;fill-rule:nonzero;stroke:none"
             id="path114" />
        </g>
        <g
           id="g116"
           transform="translate(6.3828,23.0996)">
          <path
             d="M 0,0 0.618,0.449 1.235,0 0.999,0.726 1.617,1.175 0.854,1.175 0.618,1.9 0.382,1.175 -0.381,1.175 0.236,0.726 0,0 Z"
             style="fill:#ffffff;fill-opacity:1;fill-rule:nonzero;stroke:none"
             id="path118" />
        </g>
        <g
           id="g120"
           transform="translate(10.0015,24.2744)">
          <path
             d="M 0,0 0.618,-0.449 0.381,-1.175 0.999,-0.726 1.617,-1.175 1.38,-0.449 1.999,0 1.235,0 0.999,0.726 0.764,0 0,0 Z"
             style="fill:#ffffff;fill-opacity:1;fill-rule:nonzero;stroke:none"
             id="path122" />
        </g>
        <g
           id="g124"
           transform="translate(14.0015,24.2744)">
          <path
             d="M 0,0 0.618,-0.449 0.381,-1.175 0.999,-0.726 1.617,-1.175 1.38,-0.449 1.999,0 1.235,0 0.999,0.726 0.764,0 0,0 Z"
             style="fill:#ffffff;fill-opacity:1;fill-rule:nonzero;stroke:none"
             id="path126" />
        </g>
        <g
           id="g128"
           transform="translate(2.0015,20.2744)">
          <path
             d="M 0,0 0.618,-0.449 0.382,-1.175 0.999,-0.726 1.617,-1.175 1.38,-0.449 1.999,0 1.235,0 0.999,0.726 0.764,0 0,0 Z"
             style="fill:#ffffff;fill-opacity:1;fill-rule:nonzero;stroke:none"
             id="path130" />
        </g>
        <g
           id="g132"
           transform="translate(6.3828,19.0996)">
          <path
             d="M 0,0 0.618,0.449 1.235,0 0.999,0.726 1.617,1.175 0.854,1.175 0.618,1.9 0.382,1.175 -0.381,1.175 0.236,0.726 0,0 Z"
             style="fill:#ffffff;fill-opacity:1;fill-rule:nonzero;stroke:none"
             id="path134" />
        </g>
        <g
           id="g136"
           transform="translate(10.0015,20.2744)">
          <path
             d="M 0,0 0.618,-0.449 0.381,-1.175 0.999,-0.726 1.617,-1.175 1.38,-0.449 1.999,0 1.235,0 0.999,0.726 0.764,0 0,0 Z"
             style="fill:#ffffff;fill-opacity:1;fill-rule:nonzero;stroke:none"
             id="path138" />
        </g>
        <g
           id="g140"
           transform="translate(14.0015,20.2744)">
          <path
             d="M 0,0 0.618,-0.449 0.381,-1.175 0.999,-0.726 1.617,-1.175 1.38,-0.449 1.999,0 1.235,0 0.999,0.726 0.764,0 0,0 Z"
             style="fill:#ffffff;fill-opacity:1;fill-rule:nonzero;stroke:none"
             id="path142" />
        </g>
      </g>
    </g>
  </g>
  <path
     d="M 12.5 29.595703 L 1.5371094 37.345703 C 2.4361442 38.211676 3.6532692 38.75 5 38.75 L 12.5 38.75 L 12.5 29.595703 z "
     style="opacity:1;fill:#d52b1e;fill-opacity:1;fill-rule:nonzero;stroke:none;stroke-width:1.25;stop-opacity:1"
     id="path22-6" />
  <path
     d="M 43.496094 7.6835938 L 32.5 15.457031 L 32.5 38.75 L 40 38.75 C 42.76125 38.75 45 36.51125 45 33.75 L 45 11.25 C 45 9.8513922 44.421795 8.5910778 43.496094 7.6835938 z "
     style="opacity:1;fill:#d52b1e;fill-opacity:1;fill-rule:nonzero;stroke:none;stroke-width:1.25;stop-opacity:1"
     id="path26-2" />
  <path
     d="M 32.5 15.457031 L 12.5 29.595703 L 12.5 38.75 L 32.5 38.75 L 32.5 15.457031 z "
     style="opacity:1;fill:#eeeeee;fill-opacity:1;fill-rule:nonzero;stroke:none;stroke-width:1.25;stop-opacity:1"
     id="path28-9" />
  <path
     d="M 28.195312 18.5 L 27.03125 19.324219 L 26.09375 20.375 C 25.898979 20.621253 25.57266 20.691086 25.441406 20.447266 L 17.621094 25.974609 L 18.015625 26.296875 C 18.188125 26.430625 18.274141 26.671875 18.212891 26.890625 L 17.832031 28.142578 C 19.330781 27.971328 20.672422 27.816328 22.169922 27.642578 C 22.302422 27.642578 22.388672 27.714687 22.388672 27.867188 L 22.121094 32.498047 L 23.318359 32.498047 L 23.050781 27.867188 C 23.050781 27.714688 23.137031 27.642578 23.269531 27.642578 C 24.767031 27.816328 26.109219 27.971328 27.605469 28.142578 L 27.224609 26.890625 C 27.163359 26.671875 27.250625 26.430625 27.421875 26.296875 L 31.771484 22.753906 L 30.871094 22.330078 C 30.474844 22.188828 30.586016 21.965234 30.728516 21.427734 L 31.390625 19.007812 L 28.865234 19.541016 C 28.617734 19.577266 28.453516 19.421484 28.416016 19.271484 L 28.195312 18.5 z "
     style="opacity:1;fill:#d52b1e;fill-opacity:1;fill-rule:nonzero;stroke:none;stroke-width:1.25;stop-opacity:1"
     id="path32" />
</svg>
